<?xml version="1.0" encoding="UTF-8" standalone="no"?>
<!-- Created with Inkscape (http://www.inkscape.org/) -->

<svg
   xmlns:dc="http://purl.org/dc/elements/1.1/"
   xmlns:cc="http://creativecommons.org/ns#"
   xmlns:rdf="http://www.w3.org/1999/02/22-rdf-syntax-ns#"
   xmlns:svg="http://www.w3.org/2000/svg"
   xmlns="http://www.w3.org/2000/svg"
   xmlns:sodipodi="http://sodipodi.sourceforge.net/DTD/sodipodi-0.dtd"
   xmlns:inkscape="http://www.inkscape.org/namespaces/inkscape"
   width="21mm"
   height="29mm"
   viewBox="0 0 744.09448819 1052.3622047"
   id="svg2"
   version="1.1"
   inkscape:version="0.91 r13725"
   sodipodi:docname="paint-roll.svg">
  <title
     id="title4209">Paint roll</title>
  <defs
     id="defs4" />
  <sodipodi:namedview
     id="base"
     pagecolor="#ffffff"
     bordercolor="#666666"
     borderopacity="1.0"
     inkscape:pageopacity="0.0"
     inkscape:pageshadow="2"
     inkscape:zoom="0.98994949"
     inkscape:cx="425.12722"
     inkscape:cy="821.2173"
     inkscape:document-units="px"
     inkscape:current-layer="layer1"
     showgrid="false"
     showguides="true"
     inkscape:guide-bbox="true"
     inkscape:window-width="136"
     inkscape:window-height="69"
     inkscape:window-x="0"
     inkscape:window-y="27"
     inkscape:window-maximized="1" />
  <metadata
     id="metadata7">
    <rdf:RDF>
      <cc:Work
         rdf:about="">
        <dc:format>image/svg+xml</dc:format>
        <dc:type
           rdf:resource="http://purl.org/dc/dcmitype/StillImage" />
        <dc:title>Paint roll</dc:title>
        <cc:license
           rdf:resource="http://creativecommons.org/publicdomain/zero/1.0/" />
        <dc:date>2015/12/13</dc:date>
        <dc:creator>
          <cc:Agent>
            <dc:title>Sergio Luiz Araujo Silva</dc:title>
          </cc:Agent>
        </dc:creator>
        <dc:rights>
          <cc:Agent>
            <dc:title>Public Domain</dc:title>
          </cc:Agent>
        </dc:rights>
        <dc:language>English</dc:language>
        <dc:subject>
          <rdf:Bag>
            <rdf:li>paint</rdf:li>
            <rdf:li>brush</rdf:li>
            <rdf:li></rdf:li>
          </rdf:Bag>
        </dc:subject>
        <dc:description>A simple paint roll</dc:description>
      </cc:Work>
      <cc:License
         rdf:about="http://creativecommons.org/publicdomain/zero/1.0/">
        <cc:permits
           rdf:resource="http://creativecommons.org/ns#Reproduction" />
        <cc:permits
           rdf:resource="http://creativecommons.org/ns#Distribution" />
        <cc:permits
           rdf:resource="http://creativecommons.org/ns#DerivativeWorks" />
      </cc:License>
    </rdf:RDF>
  </metadata>
  <g
     inkscape:label="Camada 1"
     inkscape:groupmode="layer"
     id="layer1">
    <path
       style="color:#FFFFFF;clip-rule:nonzero;display:inline;overflow:visible;visibility:visible;opacity:1;isolation:auto;mix-blend-mode:normal;color-interpolation:sRGB;color-interpolation-filters:linearRGB;solid-color:#000000;solid-opacity:1;fill:#EEE;fill-opacity:1;fill-rule:nonzero;stroke:none;stroke-width:1px;stroke-linecap:butt;stroke-linejoin:miter;stroke-miterlimit:4;stroke-dasharray:none;stroke-dashoffset:0;stroke-opacity:1;color-rendering:auto;image-rendering:auto;shape-rendering:auto;text-rendering:auto;enable-background:accumulate"
       d="m 288.97481,113.4475 c -8.54553,0 -15.42465,6.87916 -15.42465,15.42465 l 0,40.73584 c 0,8.54552 6.87912,15.42468 15.42465,15.42468 l 171.62691,0 c 8.54549,0 15.42464,-6.87916 15.42464,-15.42468 l 0,-40.73584 c 0,-8.54549 -6.87915,-15.42465 -15.42464,-15.42465 l -171.62691,0 z m 190.78168,29.28332 0,11.35174 6.84199,0 c 0.55368,0 0.59603,0.024 1.03502,0.0344 -0.0309,0.68479 -0.0344,1.03431 -0.0806,1.99615 -0.003,0.0919 -0.007,0.18375 -0.007,0.27563 l 0,45.85724 c -0.0582,3.51199 -0.29869,6.44896 -0.54443,6.9831 -0.12283,0.26704 0.12354,0.001 -0.0275,0.0671 -0.14969,0.0664 -1.03097,0.33655 -2.99755,0.11425 -0.21197,-0.024 -0.42508,-0.0389 -0.63851,-0.0403 l -99.8267,0 c -2.02539,0 -3.69948,-0.0275 -5.40367,0.12766 -1.70422,0.15451 -3.726,0.44112 -5.73297,2.0096 -2.00697,1.56847 -2.98298,4.12379 -3.23952,6.04215 -0.24192,1.8074 -0.14625,3.47222 0.007,5.43054 l 0,29.11529 11.35846,0 0,-29.22283 c -9.3e-4,-0.15038 -0.007,-0.3004 -0.0207,-0.4503 -0.0716,-0.90017 -0.0309,-1.07058 -0.0403,-1.63992 0.85134,-0.0275 1.63038,-0.0536 3.07146,-0.0536 l 99.68556,0 c 3.05512,0.29112 5.84764,0.0695 8.37436,-1.04845 2.66565,-1.17945 4.71694,-3.4697 5.74643,-5.70613 2.05891,-4.47283 1.53561,-8.48108 1.58616,-11.53991 2.7e-4,-0.0309 2.7e-4,-0.063 0,-0.0943 l 0,-45.85723 0,-0.0939 c 0.0898,-1.73495 0.19821,-3.17176 0.16792,-4.63077 -0.0309,-1.54794 -0.10671,-3.56724 -1.70043,-5.67923 -1.5937,-2.11204 -4.07431,-2.89263 -5.73969,-3.13196 -1.66537,-0.23951 -3.14609,-0.21507 -5.03401,-0.21507 l -6.84198,0 z M 361.29252,256.32206 c -1.53192,0 -2.7623,1.23713 -2.7623,2.76906 l 0,130.68945 c 0,1.53188 1.23038,2.7623 2.7623,2.7623 l 25.96988,0 c 1.53192,0 2.76905,-1.23042 2.76905,-2.7623 l 0,-130.68945 c 0,-1.53193 -1.23713,-2.76906 -2.76905,-2.76906 l -25.96988,0 z"
       id="rect3398"
       inkscape:connector-curvature="0" />
  </g>
</svg>
